# xmcd
#
# Track frame offsets: 
#        150
#        12782
#        26090
#        39242
#        50282
#        73025
#        83670
#        93570
#        112687
#        128112
#
# Disc length: 2096 seconds
#
# Revision: 1
# Processed by: cddbd v1.5.2PL0 Copyright (c) Steve Scherf et al.
# Submitted via: ExactAudioCopy v0.99pb4
#
DISCID=70082e0a
DTITLE=Creedence Clearwater Revival - Willy And The Poor Boys
DYEAR=1969
DGENRE=Rock
TTITLE0=Down On The Corner
TTITLE1=It Came Out Of The Sky
TTITLE2=Cotton Fields
TTITLE3=Poorboy Shuffle
TTITLE4=Feelin' Blue
TTITLE5=Fortunate Son
TTITLE6=Don't Look Now
TTITLE7=The Midnight Special
TTITLE8=Side O' The Road
TTITLE9=Effigy
EXTD=© 1987\nLabel: Fantasy Records\nFCD 8397-2
EXTT0=
EXTT1=
EXTT2=
EXTT3=
EXTT4=
EXTT5=
EXTT6=
EXTT7=
EXTT8=
EXTT9=
PLAYORDER=
